%TF.GenerationSoftware,KiCad,Pcbnew,(7.0.0)*%
%TF.CreationDate,2023-04-09T22:25:14-07:00*%
%TF.ProjectId,RTCRework,52544352-6577-46f7-926b-2e6b69636164,rev?*%
%TF.SameCoordinates,Original*%
%TF.FileFunction,Legend,Top*%
%TF.FilePolarity,Positive*%
%FSLAX46Y46*%
G04 Gerber Fmt 4.6, Leading zero omitted, Abs format (unit mm)*
G04 Created by KiCad (PCBNEW (7.0.0)) date 2023-04-09 22:25:14*
%MOMM*%
%LPD*%
G01*
G04 APERTURE LIST*
%ADD10C,0.100000*%
%ADD11C,0.150000*%
%ADD12C,0.120000*%
G04 APERTURE END LIST*
D10*
X45846952Y-48405190D02*
X45561238Y-48405190D01*
X45704095Y-48405190D02*
X45704095Y-47905190D01*
X45704095Y-47905190D02*
X45656476Y-47976619D01*
X45656476Y-47976619D02*
X45608857Y-48024238D01*
X45608857Y-48024238D02*
X45561238Y-48048047D01*
X46013618Y-47905190D02*
X46346951Y-47905190D01*
X46346951Y-47905190D02*
X46132666Y-48405190D01*
X46537427Y-48357571D02*
X46561237Y-48381380D01*
X46561237Y-48381380D02*
X46537427Y-48405190D01*
X46537427Y-48405190D02*
X46513618Y-48381380D01*
X46513618Y-48381380D02*
X46537427Y-48357571D01*
X46537427Y-48357571D02*
X46537427Y-48405190D01*
X46989808Y-47905190D02*
X46894570Y-47905190D01*
X46894570Y-47905190D02*
X46846951Y-47929000D01*
X46846951Y-47929000D02*
X46823141Y-47952809D01*
X46823141Y-47952809D02*
X46775522Y-48024238D01*
X46775522Y-48024238D02*
X46751713Y-48119476D01*
X46751713Y-48119476D02*
X46751713Y-48309952D01*
X46751713Y-48309952D02*
X46775522Y-48357571D01*
X46775522Y-48357571D02*
X46799332Y-48381380D01*
X46799332Y-48381380D02*
X46846951Y-48405190D01*
X46846951Y-48405190D02*
X46942189Y-48405190D01*
X46942189Y-48405190D02*
X46989808Y-48381380D01*
X46989808Y-48381380D02*
X47013617Y-48357571D01*
X47013617Y-48357571D02*
X47037427Y-48309952D01*
X47037427Y-48309952D02*
X47037427Y-48190904D01*
X47037427Y-48190904D02*
X47013617Y-48143285D01*
X47013617Y-48143285D02*
X46989808Y-48119476D01*
X46989808Y-48119476D02*
X46942189Y-48095666D01*
X46942189Y-48095666D02*
X46846951Y-48095666D01*
X46846951Y-48095666D02*
X46799332Y-48119476D01*
X46799332Y-48119476D02*
X46775522Y-48143285D01*
X46775522Y-48143285D02*
X46751713Y-48190904D01*
X47180284Y-47905190D02*
X47346950Y-48405190D01*
X47346950Y-48405190D02*
X47513617Y-47905190D01*
D11*
%TO.C,U1*%
X52070095Y-48389380D02*
X52070095Y-49198904D01*
X52070095Y-49198904D02*
X52117714Y-49294142D01*
X52117714Y-49294142D02*
X52165333Y-49341761D01*
X52165333Y-49341761D02*
X52260571Y-49389380D01*
X52260571Y-49389380D02*
X52451047Y-49389380D01*
X52451047Y-49389380D02*
X52546285Y-49341761D01*
X52546285Y-49341761D02*
X52593904Y-49294142D01*
X52593904Y-49294142D02*
X52641523Y-49198904D01*
X52641523Y-49198904D02*
X52641523Y-48389380D01*
X53641523Y-49389380D02*
X53070095Y-49389380D01*
X53355809Y-49389380D02*
X53355809Y-48389380D01*
X53355809Y-48389380D02*
X53260571Y-48532238D01*
X53260571Y-48532238D02*
X53165333Y-48627476D01*
X53165333Y-48627476D02*
X53070095Y-48675095D01*
%TO.C,C1*%
X52665333Y-47770142D02*
X52617714Y-47817761D01*
X52617714Y-47817761D02*
X52474857Y-47865380D01*
X52474857Y-47865380D02*
X52379619Y-47865380D01*
X52379619Y-47865380D02*
X52236762Y-47817761D01*
X52236762Y-47817761D02*
X52141524Y-47722523D01*
X52141524Y-47722523D02*
X52093905Y-47627285D01*
X52093905Y-47627285D02*
X52046286Y-47436809D01*
X52046286Y-47436809D02*
X52046286Y-47293952D01*
X52046286Y-47293952D02*
X52093905Y-47103476D01*
X52093905Y-47103476D02*
X52141524Y-47008238D01*
X52141524Y-47008238D02*
X52236762Y-46913000D01*
X52236762Y-46913000D02*
X52379619Y-46865380D01*
X52379619Y-46865380D02*
X52474857Y-46865380D01*
X52474857Y-46865380D02*
X52617714Y-46913000D01*
X52617714Y-46913000D02*
X52665333Y-46960619D01*
X53617714Y-47865380D02*
X53046286Y-47865380D01*
X53332000Y-47865380D02*
X53332000Y-46865380D01*
X53332000Y-46865380D02*
X53236762Y-47008238D01*
X53236762Y-47008238D02*
X53141524Y-47103476D01*
X53141524Y-47103476D02*
X53046286Y-47151095D01*
%TO.C,C2*%
X52665333Y-52850142D02*
X52617714Y-52897761D01*
X52617714Y-52897761D02*
X52474857Y-52945380D01*
X52474857Y-52945380D02*
X52379619Y-52945380D01*
X52379619Y-52945380D02*
X52236762Y-52897761D01*
X52236762Y-52897761D02*
X52141524Y-52802523D01*
X52141524Y-52802523D02*
X52093905Y-52707285D01*
X52093905Y-52707285D02*
X52046286Y-52516809D01*
X52046286Y-52516809D02*
X52046286Y-52373952D01*
X52046286Y-52373952D02*
X52093905Y-52183476D01*
X52093905Y-52183476D02*
X52141524Y-52088238D01*
X52141524Y-52088238D02*
X52236762Y-51993000D01*
X52236762Y-51993000D02*
X52379619Y-51945380D01*
X52379619Y-51945380D02*
X52474857Y-51945380D01*
X52474857Y-51945380D02*
X52617714Y-51993000D01*
X52617714Y-51993000D02*
X52665333Y-52040619D01*
X53046286Y-52040619D02*
X53093905Y-51993000D01*
X53093905Y-51993000D02*
X53189143Y-51945380D01*
X53189143Y-51945380D02*
X53427238Y-51945380D01*
X53427238Y-51945380D02*
X53522476Y-51993000D01*
X53522476Y-51993000D02*
X53570095Y-52040619D01*
X53570095Y-52040619D02*
X53617714Y-52135857D01*
X53617714Y-52135857D02*
X53617714Y-52231095D01*
X53617714Y-52231095D02*
X53570095Y-52373952D01*
X53570095Y-52373952D02*
X52998667Y-52945380D01*
X52998667Y-52945380D02*
X53617714Y-52945380D01*
%TO.C,D1*%
X46759905Y-53961380D02*
X46759905Y-52961380D01*
X46759905Y-52961380D02*
X46998000Y-52961380D01*
X46998000Y-52961380D02*
X47140857Y-53009000D01*
X47140857Y-53009000D02*
X47236095Y-53104238D01*
X47236095Y-53104238D02*
X47283714Y-53199476D01*
X47283714Y-53199476D02*
X47331333Y-53389952D01*
X47331333Y-53389952D02*
X47331333Y-53532809D01*
X47331333Y-53532809D02*
X47283714Y-53723285D01*
X47283714Y-53723285D02*
X47236095Y-53818523D01*
X47236095Y-53818523D02*
X47140857Y-53913761D01*
X47140857Y-53913761D02*
X46998000Y-53961380D01*
X46998000Y-53961380D02*
X46759905Y-53961380D01*
X48283714Y-53961380D02*
X47712286Y-53961380D01*
X47998000Y-53961380D02*
X47998000Y-52961380D01*
X47998000Y-52961380D02*
X47902762Y-53104238D01*
X47902762Y-53104238D02*
X47807524Y-53199476D01*
X47807524Y-53199476D02*
X47712286Y-53247095D01*
D12*
%TO.C,U1*%
X50000000Y-48440000D02*
X48325000Y-48440000D01*
X50000000Y-48440000D02*
X50650000Y-48440000D01*
X50000000Y-51560000D02*
X49350000Y-51560000D01*
X50000000Y-51560000D02*
X50650000Y-51560000D01*
%TO.C,C1*%
X49859420Y-46988000D02*
X50140580Y-46988000D01*
X49859420Y-48008000D02*
X50140580Y-48008000D01*
%TO.C,C2*%
X49859420Y-52068000D02*
X50140580Y-52068000D01*
X49859420Y-53088000D02*
X50140580Y-53088000D01*
%TO.C,D1*%
X51485000Y-54837000D02*
X51485000Y-53367000D01*
X51485000Y-53367000D02*
X49200000Y-53367000D01*
X49200000Y-54837000D02*
X51485000Y-54837000D01*
%TO.C,J1*%
X45282000Y-48800000D02*
X47682000Y-48800000D01*
X45282000Y-51200000D02*
X45282000Y-48800000D01*
X47682000Y-48800000D02*
X47682000Y-51200000D01*
X47682000Y-51200000D02*
X45282000Y-51200000D01*
%TD*%
M02*
